<?xml version="1.0" encoding="UTF-8" standalone="no"?><!DOCTYPE svg PUBLIC "-//W3C//DTD SVG 1.1//EN" "http://www.w3.org/Graphics/SVG/1.1/DTD/svg11.dtd"><svg width="100%" height="100%" viewBox="0 0 36 36" version="1.1" xmlns="http://www.w3.org/2000/svg" xmlns:xlink="http://www.w3.org/1999/xlink" xml:space="preserve" style="fill-rule:evenodd;clip-rule:evenodd;stroke-linejoin:round;stroke-miterlimit:1.41421;"><rect x="0" y="0" width="36" height="36" style="fill:#e6a919;"/><path d="M24.457,12.466c-0.926,-0.121 -1.863,-0.121 -2.789,0l-0.68,2.854l-2.015,-2.131c-0.863,0.357 -1.676,0.826 -2.417,1.395l0.839,2.811l-2.811,-0.839c-0.569,0.741 -1.038,1.554 -1.395,2.417l2.131,2.015l-2.854,0.68c-0.121,0.926 -0.121,1.863 0,2.789l2.854,0.68l-2.131,2.015c0.357,0.863 0.826,1.676 1.395,2.417l2.811,-0.839l-0.839,2.811c0.741,0.569 1.554,1.038 2.417,1.395l2.015,-2.131l0.68,2.854c0.926,0.121 1.863,0.121 2.789,0l0.68,-2.854l2.015,2.131c0.863,-0.357 1.676,-0.826 2.417,-1.395l-0.839,-2.811l2.811,0.839c0.569,-0.741 1.038,-1.554 1.395,-2.417l-2.131,-2.015l2.854,-0.68c0.121,-0.926 0.121,-1.863 0,-2.789l-2.854,-0.68l2.131,-2.015c-0.357,-0.863 -0.826,-1.676 -1.395,-2.417l-2.811,0.839l0.839,-2.811c-0.741,-0.569 -1.554,-1.038 -2.417,-1.395l-2.015,2.131l-0.68,-2.854Zm-1.394,6.321c2.359,0 4.275,1.916 4.275,4.276c0,2.359 -1.916,4.275 -4.275,4.275c-2.36,0 -4.276,-1.916 -4.276,-4.275c0,-2.36 1.916,-4.276 4.276,-4.276Z" style="fill:#808080;"/><path d="M23.15,12.375l0.087,0.001l0.088,0.002l0.087,0.003l0.087,0.003l0.088,0.004l0.087,0.005l0.087,0.005l0.087,0.006l0.088,0.007l0.087,0.007l0.087,0.008l0.087,0.009l0.087,0.01l0.087,0.01l0.086,0.011l0.68,2.854l2.015,-2.131l0.081,0.033l0.081,0.035l0.08,0.035l0.08,0.036l0.079,0.036l0.079,0.037l0.079,0.038l0.079,0.038l0.078,0.039l0.078,0.04l0.078,0.04l0.077,0.041l0.077,0.042l0.076,0.042l0.076,0.042l0.076,0.044l0.076,0.044l0.075,0.044l0.075,0.046l0.074,0.046l0.074,0.046l0.074,0.047l0.073,0.048l0.073,0.048l0.072,0.049l0.072,0.049l0.072,0.05l0.071,0.051l0.071,0.051l0.071,0.052l0.07,0.053l0.07,0.053l-0.839,2.811l2.811,-0.839l0.053,0.07l0.053,0.07l0.052,0.071l0.051,0.071l0.051,0.071l0.05,0.072l0.049,0.072l0.049,0.072l0.048,0.073l0.048,0.073l0.047,0.074l0.046,0.074l0.046,0.074l0.046,0.075l0.044,0.075l0.044,0.076l0.044,0.076l0.042,0.076l0.042,0.076l0.042,0.077l0.041,0.077l0.04,0.078l0.04,0.078l0.039,0.078l0.038,0.079l0.038,0.079l0.037,0.079l0.036,0.079l0.036,0.08l0.035,0.08l0.035,0.081l0.033,0.081l-2.131,2.015l2.854,0.68l0.011,0.086l0.01,0.087l0.01,0.087l0.009,0.087l0.008,0.087l0.007,0.087l0.007,0.088l0.006,0.087l0.005,0.087l0.005,0.087l0.004,0.088l0.003,0.087l0.003,0.087l0.002,0.088l0.001,0.087l0,0.088l0,0.087l-0.001,0.087l-0.002,0.088l-0.003,0.087l-0.003,0.087l-0.004,0.088l-0.005,0.087l-0.005,0.087l-0.006,0.087l-0.007,0.088l-0.007,0.087l-0.008,0.087l-0.009,0.087l-0.01,0.087l-0.01,0.087l-0.011,0.086l-2.854,0.68l2.131,2.015l-0.033,0.081l-0.035,0.081l-0.035,0.08l-0.036,0.08l-0.036,0.079l-0.037,0.079l-0.038,0.079l-0.038,0.079l-0.039,0.078l-0.04,0.078l-0.04,0.078l-0.041,0.077l-0.042,0.077l-0.042,0.076l-0.042,0.076l-0.044,0.076l-0.044,0.076l-0.044,0.075l-0.046,0.075l-0.046,0.074l-0.046,0.074l-0.047,0.074l-0.048,0.073l-0.048,0.073l-0.049,0.072l-0.049,0.072l-0.05,0.072l-0.051,0.071l-0.051,0.071l-0.052,0.071l-0.053,0.07l-0.053,0.07l-2.811,-0.839l0.839,2.811l-0.07,0.053l-0.07,0.053l-0.071,0.052l-0.071,0.051l-0.071,0.051l-0.072,0.05l-0.072,0.049l-0.072,0.049l-0.073,0.048l-0.073,0.048l-0.074,0.047l-0.074,0.046l-0.074,0.046l-0.075,0.046l-0.075,0.044l-0.076,0.044l-0.076,0.044l-0.076,0.042l-0.076,0.042l-0.077,0.042l-0.077,0.041l-0.078,0.04l-0.078,0.04l-0.078,0.039l-0.079,0.038l-0.079,0.038l-0.079,0.037l-0.079,0.036l-0.08,0.036l-0.08,0.035l-0.081,0.035l-0.081,0.033l-2.015,-2.131l-0.68,2.854l-0.086,0.011l-0.087,0.01l-0.087,0.01l-0.087,0.009l-0.087,0.008l-0.087,0.007l-0.088,0.007l-0.087,0.006l-0.087,0.005l-0.087,0.005l-0.088,0.004l-0.087,0.003l-0.087,0.003l-0.088,0.002l-0.087,0.001l-0.087,0l-0.088,0l-0.087,-0.001l-0.088,-0.002l-0.087,-0.003l-0.087,-0.003l-0.088,-0.004l-0.087,-0.005l-0.087,-0.005l-0.087,-0.006l-0.088,-0.007l-0.087,-0.007l-0.087,-0.008l-0.087,-0.009l-0.087,-0.01l-0.087,-0.01l-0.086,-0.011l-0.68,-2.854l-2.015,2.131l-0.081,-0.033l-0.081,-0.035l-0.08,-0.035l-0.08,-0.036l-0.079,-0.036l-0.079,-0.037l-0.079,-0.038l-0.079,-0.038l-0.078,-0.039l-0.078,-0.04l-0.078,-0.04l-0.077,-0.041l-0.077,-0.042l-0.076,-0.042l-0.076,-0.042l-0.076,-0.044l-0.076,-0.044l-0.075,-0.044l-0.075,-0.046l-0.074,-0.046l-0.074,-0.046l-0.074,-0.047l-0.073,-0.048l-0.073,-0.048l-0.072,-0.049l-0.072,-0.049l-0.072,-0.05l-0.071,-0.051l-0.071,-0.051l-0.071,-0.052l-0.07,-0.053l-0.07,-0.053l0.839,-2.811l-2.811,0.839l-0.053,-0.07l-0.053,-0.07l-0.052,-0.071l-0.051,-0.071l-0.051,-0.071l-0.05,-0.072l-0.049,-0.072l-0.049,-0.072l-0.048,-0.073l-0.048,-0.073l-0.047,-0.074l-0.046,-0.074l-0.046,-0.074l-0.046,-0.075l-0.044,-0.075l-0.044,-0.076l-0.044,-0.076l-0.042,-0.076l-0.042,-0.076l-0.042,-0.077l-0.041,-0.077l-0.04,-0.078l-0.04,-0.078l-0.039,-0.078l-0.038,-0.079l-0.038,-0.079l-0.037,-0.079l-0.036,-0.079l-0.036,-0.08l-0.035,-0.08l-0.035,-0.081l-0.033,-0.081l2.131,-2.015l-2.854,-0.68l-0.011,-0.086l-0.01,-0.087l-0.01,-0.087l-0.009,-0.087l-0.008,-0.087l-0.007,-0.087l-0.007,-0.088l-0.006,-0.087l-0.005,-0.087l-0.005,-0.087l-0.004,-0.088l-0.003,-0.087l-0.003,-0.087l-0.002,-0.088l-0.001,-0.087l0,-0.087l0,-0.088l0.001,-0.087l0.002,-0.088l0.003,-0.087l0.003,-0.087l0.004,-0.088l0.005,-0.087l0.005,-0.087l0.006,-0.087l0.007,-0.088l0.007,-0.087l0.008,-0.087l0.009,-0.087l0.01,-0.087l0.01,-0.087l0.011,-0.086l2.854,-0.68l-2.131,-2.015l0.033,-0.081l0.035,-0.081l0.035,-0.08l0.036,-0.08l0.036,-0.079l0.037,-0.079l0.038,-0.079l0.038,-0.079l0.039,-0.078l0.04,-0.078l0.04,-0.078l0.041,-0.077l0.042,-0.077l0.042,-0.076l0.042,-0.076l0.044,-0.076l0.044,-0.076l0.044,-0.075l0.046,-0.075l0.046,-0.074l0.046,-0.074l0.047,-0.074l0.048,-0.073l0.048,-0.073l0.049,-0.072l0.049,-0.072l0.05,-0.072l0.051,-0.071l0.051,-0.071l0.052,-0.071l0.053,-0.07l0.053,-0.07l2.811,0.839l-0.839,-2.811l0.07,-0.053l0.07,-0.053l0.071,-0.052l0.071,-0.051l0.071,-0.051l0.072,-0.05l0.072,-0.049l0.072,-0.049l0.073,-0.048l0.073,-0.048l0.074,-0.047l0.074,-0.046l0.074,-0.046l0.075,-0.046l0.075,-0.044l0.076,-0.044l0.076,-0.044l0.076,-0.042l0.076,-0.042l0.077,-0.042l0.077,-0.041l0.078,-0.04l0.078,-0.04l0.078,-0.039l0.079,-0.038l0.079,-0.038l0.079,-0.037l0.079,-0.036l0.08,-0.036l0.08,-0.035l0.081,-0.035l0.081,-0.033l2.015,2.131l0.68,-2.854l0.086,-0.011l0.087,-0.01l0.087,-0.01l0.087,-0.009l0.087,-0.008l0.087,-0.007l0.088,-0.007l0.087,-0.006l0.087,-0.005l0.087,-0.005l0.088,-0.004l0.087,-0.003l0.087,-0.003l0.088,-0.002l0.087,-0.001l0.088,0l0.087,0Zm-0.167,1l-0.079,0.001l-0.079,0.002l-0.079,0.002l-0.079,0.003l-0.08,0.004l-0.079,0.004l-0.033,0.002l-0.784,3.292l-0.63,0.168l-2.324,-2.458l-0.03,0.015l-0.071,0.035l-0.07,0.037l-0.07,0.037l-0.07,0.038l-0.069,0.038l-0.069,0.039l-0.069,0.039l-0.069,0.04l-0.068,0.04l-0.068,0.041l-0.067,0.042l-0.067,0.042l-0.067,0.043l-0.066,0.043l-0.028,0.018l0.967,3.243l-0.461,0.461l-3.243,-0.967l-0.018,0.028l-0.043,0.066l-0.043,0.067l-0.042,0.067l-0.042,0.067l-0.041,0.068l-0.04,0.068l-0.04,0.069l-0.039,0.069l-0.039,0.069l-0.038,0.069l-0.038,0.07l-0.037,0.07l-0.037,0.07l-0.035,0.071l-0.015,0.03l2.458,2.324l-0.168,0.63l-3.292,0.784l-0.002,0.033l-0.004,0.079l-0.004,0.08l-0.003,0.079l-0.002,0.079l-0.002,0.079l-0.001,0.079l0,0.079l0,0.08l0.001,0.079l0.002,0.079l0.002,0.079l0.003,0.079l0.004,0.08l0.004,0.079l0.002,0.033l3.292,0.784l0.168,0.63l-2.458,2.324l0.015,0.03l0.035,0.071l0.037,0.07l0.037,0.07l0.038,0.07l0.038,0.069l0.039,0.069l0.039,0.069l0.04,0.069l0.04,0.068l0.041,0.068l0.042,0.067l0.042,0.067l0.043,0.067l0.043,0.066l0.018,0.028l3.243,-0.967l0.461,0.461l-0.967,3.243l0.028,0.018l0.066,0.043l0.067,0.043l0.067,0.042l0.067,0.042l0.068,0.041l0.068,0.04l0.069,0.04l0.069,0.039l0.069,0.039l0.069,0.038l0.07,0.038l0.07,0.037l0.07,0.037l0.071,0.035l0.03,0.015l2.324,-2.458l0.63,0.168l0.784,3.292l0.033,0.002l0.079,0.004l0.08,0.004l0.079,0.003l0.079,0.002l0.079,0.002l0.079,0.001l0.079,0l0.08,0l0.079,-0.001l0.079,-0.002l0.079,-0.002l0.079,-0.003l0.08,-0.004l0.079,-0.004l0.033,-0.002l0.784,-3.292l0.63,-0.168l2.324,2.458l0.03,-0.015l0.071,-0.035l0.07,-0.037l0.07,-0.037l0.07,-0.038l0.069,-0.038l0.069,-0.039l0.069,-0.039l0.069,-0.04l0.068,-0.04l0.068,-0.041l0.067,-0.042l0.067,-0.042l0.067,-0.043l0.066,-0.043l0.028,-0.018l-0.967,-3.243l0.461,-0.461l3.243,0.967l0.018,-0.028l0.043,-0.066l0.043,-0.067l0.042,-0.067l0.042,-0.067l0.041,-0.068l0.04,-0.068l0.04,-0.069l0.039,-0.069l0.039,-0.069l0.038,-0.069l0.038,-0.07l0.037,-0.07l0.037,-0.07l0.035,-0.071l0.015,-0.03l-2.458,-2.324l0.168,-0.63l3.292,-0.784l0.002,-0.033l0.004,-0.079l0.004,-0.08l0.003,-0.079l0.002,-0.079l0.002,-0.079l0.001,-0.079l0,-0.08l0,-0.079l-0.001,-0.079l-0.002,-0.079l-0.002,-0.079l-0.003,-0.079l-0.004,-0.08l-0.004,-0.079l-0.002,-0.033l-3.292,-0.784l-0.168,-0.63l2.458,-2.324l-0.015,-0.03l-0.035,-0.071l-0.037,-0.07l-0.037,-0.07l-0.038,-0.07l-0.038,-0.069l-0.039,-0.069l-0.039,-0.069l-0.04,-0.069l-0.04,-0.068l-0.041,-0.068l-0.042,-0.067l-0.042,-0.067l-0.043,-0.067l-0.043,-0.066l-0.018,-0.028l-3.243,0.967l-0.461,-0.461l0.967,-3.243l-0.028,-0.018l-0.066,-0.043l-0.067,-0.043l-0.067,-0.042l-0.067,-0.042l-0.068,-0.041l-0.068,-0.04l-0.069,-0.04l-0.069,-0.039l-0.069,-0.039l-0.069,-0.038l-0.07,-0.038l-0.07,-0.037l-0.07,-0.037l-0.071,-0.035l-0.03,-0.015l-2.324,2.458l-0.63,-0.168l-0.784,-3.292l-0.033,-0.002l-0.079,-0.004l-0.08,-0.004l-0.079,-0.003l-0.079,-0.002l-0.079,-0.002l-0.079,-0.001l-0.08,0l-0.079,0Zm0.147,4.413l0.068,0.001l0.068,0.002l0.067,0.003l0.067,0.004l0.067,0.005l0.067,0.005l0.067,0.007l0.066,0.007l0.066,0.008l0.066,0.009l0.065,0.009l0.066,0.011l0.065,0.011l0.065,0.012l0.064,0.013l0.065,0.013l0.064,0.015l0.063,0.015l0.064,0.016l0.063,0.016l0.063,0.018l0.062,0.018l0.062,0.019l0.062,0.02l0.062,0.02l0.061,0.021l0.061,0.022l0.06,0.023l0.06,0.023l0.06,0.024l0.06,0.025l0.059,0.025l0.058,0.026l0.059,0.027l0.058,0.028l0.057,0.028l0.057,0.029l0.057,0.029l0.056,0.03l0.056,0.031l0.055,0.031l0.055,0.033l0.055,0.032l0.054,0.034l0.054,0.034l0.053,0.034l0.053,0.035l0.052,0.036l0.052,0.037l0.052,0.037l0.051,0.037l0.05,0.039l0.05,0.039l0.05,0.039l0.049,0.04l0.048,0.041l0.048,0.041l0.048,0.041l0.047,0.043l0.046,0.042l0.046,0.044l0.046,0.044l0.045,0.044l0.044,0.045l0.044,0.046l0.044,0.046l0.042,0.046l0.043,0.047l0.041,0.048l0.041,0.048l0.041,0.048l0.04,0.049l0.039,0.05l0.039,0.05l0.039,0.05l0.037,0.051l0.037,0.052l0.037,0.052l0.036,0.052l0.035,0.053l0.034,0.053l0.034,0.054l0.034,0.054l0.032,0.055l0.033,0.055l0.031,0.055l0.031,0.056l0.03,0.056l0.029,0.057l0.029,0.057l0.028,0.057l0.028,0.058l0.027,0.059l0.026,0.058l0.025,0.059l0.025,0.06l0.024,0.06l0.023,0.06l0.023,0.06l0.022,0.061l0.021,0.061l0.02,0.062l0.02,0.062l0.019,0.062l0.018,0.062l0.018,0.063l0.016,0.063l0.016,0.064l0.015,0.063l0.015,0.064l0.013,0.065l0.013,0.064l0.012,0.065l0.011,0.065l0.011,0.066l0.009,0.065l0.009,0.066l0.008,0.066l0.007,0.067l0.007,0.066l0.005,0.067l0.005,0.067l0.004,0.067l0.003,0.067l0.002,0.068l0.001,0.068l0.001,0.067l-0.001,0.068l-0.001,0.068l-0.002,0.068l-0.003,0.067l-0.004,0.067l-0.005,0.067l-0.005,0.067l-0.007,0.066l-0.007,0.067l-0.008,0.066l-0.009,0.066l-0.009,0.065l-0.011,0.066l-0.011,0.065l-0.012,0.065l-0.013,0.064l-0.013,0.065l-0.015,0.064l-0.015,0.063l-0.016,0.064l-0.016,0.063l-0.018,0.063l-0.018,0.062l-0.019,0.062l-0.02,0.062l-0.02,0.062l-0.021,0.061l-0.022,0.061l-0.023,0.06l-0.023,0.06l-0.024,0.06l-0.025,0.06l-0.025,0.059l-0.026,0.058l-0.027,0.059l-0.028,0.058l-0.028,0.057l-0.029,0.057l-0.029,0.057l-0.03,0.056l-0.031,0.056l-0.031,0.055l-0.033,0.055l-0.032,0.055l-0.034,0.054l-0.034,0.054l-0.034,0.053l-0.035,0.053l-0.036,0.052l-0.037,0.052l-0.037,0.052l-0.037,0.051l-0.039,0.05l-0.039,0.05l-0.039,0.05l-0.04,0.049l-0.041,0.048l-0.041,0.048l-0.041,0.048l-0.043,0.047l-0.042,0.046l-0.044,0.046l-0.044,0.046l-0.044,0.045l-0.045,0.044l-0.046,0.044l-0.046,0.044l-0.046,0.042l-0.047,0.043l-0.048,0.041l-0.048,0.041l-0.048,0.041l-0.049,0.04l-0.05,0.039l-0.05,0.039l-0.05,0.039l-0.051,0.037l-0.052,0.037l-0.052,0.037l-0.052,0.036l-0.053,0.035l-0.053,0.034l-0.054,0.034l-0.054,0.034l-0.055,0.032l-0.055,0.033l-0.055,0.031l-0.056,0.031l-0.056,0.03l-0.057,0.029l-0.057,0.029l-0.057,0.028l-0.058,0.028l-0.059,0.027l-0.058,0.026l-0.059,0.025l-0.06,0.025l-0.06,0.024l-0.06,0.023l-0.06,0.023l-0.061,0.022l-0.061,0.021l-0.062,0.02l-0.062,0.02l-0.062,0.019l-0.062,0.018l-0.063,0.018l-0.063,0.016l-0.064,0.016l-0.063,0.015l-0.064,0.015l-0.065,0.013l-0.064,0.013l-0.065,0.012l-0.065,0.011l-0.066,0.011l-0.065,0.009l-0.066,0.009l-0.066,0.008l-0.067,0.007l-0.066,0.007l-0.067,0.005l-0.067,0.005l-0.067,0.004l-0.067,0.003l-0.068,0.002l-0.068,0.001l-0.068,0.001l-0.067,-0.001l-0.068,-0.001l-0.068,-0.002l-0.067,-0.003l-0.067,-0.004l-0.067,-0.005l-0.067,-0.005l-0.066,-0.007l-0.067,-0.007l-0.066,-0.008l-0.066,-0.009l-0.065,-0.009l-0.066,-0.011l-0.065,-0.011l-0.065,-0.012l-0.064,-0.013l-0.065,-0.013l-0.064,-0.015l-0.063,-0.015l-0.064,-0.016l-0.063,-0.016l-0.063,-0.018l-0.062,-0.018l-0.062,-0.019l-0.062,-0.02l-0.062,-0.02l-0.061,-0.021l-0.061,-0.022l-0.06,-0.023l-0.06,-0.023l-0.06,-0.024l-0.06,-0.025l-0.059,-0.025l-0.058,-0.026l-0.059,-0.027l-0.058,-0.028l-0.057,-0.028l-0.057,-0.029l-0.057,-0.029l-0.056,-0.03l-0.056,-0.031l-0.055,-0.031l-0.055,-0.033l-0.055,-0.032l-0.054,-0.034l-0.054,-0.034l-0.053,-0.034l-0.053,-0.035l-0.052,-0.036l-0.052,-0.037l-0.052,-0.037l-0.051,-0.037l-0.05,-0.039l-0.05,-0.039l-0.05,-0.039l-0.049,-0.04l-0.048,-0.041l-0.048,-0.041l-0.048,-0.041l-0.047,-0.043l-0.046,-0.042l-0.046,-0.044l-0.046,-0.044l-0.045,-0.044l-0.044,-0.045l-0.044,-0.046l-0.044,-0.046l-0.042,-0.046l-0.043,-0.047l-0.041,-0.048l-0.041,-0.048l-0.041,-0.048l-0.04,-0.049l-0.039,-0.05l-0.039,-0.05l-0.039,-0.05l-0.037,-0.051l-0.037,-0.052l-0.037,-0.052l-0.036,-0.052l-0.035,-0.053l-0.034,-0.053l-0.034,-0.054l-0.034,-0.054l-0.032,-0.055l-0.033,-0.055l-0.031,-0.055l-0.031,-0.056l-0.03,-0.056l-0.029,-0.057l-0.029,-0.057l-0.028,-0.057l-0.028,-0.058l-0.027,-0.059l-0.026,-0.058l-0.025,-0.059l-0.025,-0.06l-0.024,-0.06l-0.023,-0.06l-0.023,-0.06l-0.022,-0.061l-0.021,-0.061l-0.02,-0.062l-0.02,-0.062l-0.019,-0.062l-0.018,-0.062l-0.018,-0.063l-0.016,-0.063l-0.016,-0.064l-0.015,-0.063l-0.015,-0.064l-0.013,-0.065l-0.013,-0.064l-0.012,-0.065l-0.011,-0.065l-0.011,-0.066l-0.009,-0.065l-0.009,-0.066l-0.008,-0.066l-0.007,-0.066l-0.007,-0.067l-0.005,-0.067l-0.005,-0.067l-0.004,-0.067l-0.003,-0.067l-0.002,-0.068l-0.001,-0.068l-0.001,-0.068l0.001,-0.067l0.001,-0.068l0.002,-0.068l0.003,-0.067l0.004,-0.067l0.005,-0.067l0.005,-0.067l0.007,-0.067l0.007,-0.066l0.008,-0.066l0.009,-0.066l0.009,-0.065l0.011,-0.066l0.011,-0.065l0.012,-0.065l0.013,-0.064l0.013,-0.065l0.015,-0.064l0.015,-0.063l0.016,-0.064l0.016,-0.063l0.018,-0.063l0.018,-0.062l0.019,-0.062l0.02,-0.062l0.02,-0.062l0.021,-0.061l0.022,-0.061l0.023,-0.06l0.023,-0.06l0.024,-0.06l0.025,-0.06l0.025,-0.059l0.026,-0.058l0.027,-0.059l0.028,-0.058l0.028,-0.057l0.029,-0.057l0.029,-0.057l0.03,-0.056l0.031,-0.056l0.031,-0.055l0.033,-0.055l0.032,-0.055l0.034,-0.054l0.034,-0.054l0.034,-0.053l0.035,-0.053l0.036,-0.052l0.037,-0.052l0.037,-0.052l0.037,-0.051l0.039,-0.05l0.039,-0.05l0.039,-0.05l0.04,-0.049l0.041,-0.048l0.041,-0.048l0.041,-0.048l0.043,-0.047l0.042,-0.046l0.044,-0.046l0.044,-0.046l0.044,-0.045l0.045,-0.044l0.046,-0.044l0.046,-0.044l0.046,-0.042l0.047,-0.043l0.048,-0.041l0.048,-0.041l0.048,-0.041l0.049,-0.04l0.05,-0.039l0.05,-0.039l0.05,-0.039l0.051,-0.037l0.052,-0.037l0.052,-0.037l0.052,-0.036l0.053,-0.035l0.053,-0.034l0.054,-0.034l0.054,-0.034l0.055,-0.032l0.055,-0.033l0.055,-0.031l0.056,-0.031l0.056,-0.03l0.057,-0.029l0.057,-0.029l0.057,-0.028l0.058,-0.028l0.059,-0.027l0.058,-0.026l0.059,-0.025l0.06,-0.025l0.06,-0.024l0.06,-0.023l0.06,-0.023l0.061,-0.022l0.061,-0.021l0.062,-0.02l0.062,-0.02l0.062,-0.019l0.062,-0.018l0.063,-0.018l0.063,-0.016l0.064,-0.016l0.063,-0.015l0.064,-0.015l0.065,-0.013l0.064,-0.013l0.065,-0.012l0.065,-0.011l0.066,-0.011l0.065,-0.009l0.066,-0.009l0.066,-0.008l0.066,-0.007l0.067,-0.007l0.067,-0.005l0.067,-0.005l0.067,-0.004l0.067,-0.003l0.068,-0.002l0.068,-0.001l0.067,-0.001l0.068,0.001Zm-0.123,1l-0.055,0.001l-0.055,0.002l-0.054,0.002l-0.055,0.003l-0.054,0.004l-0.054,0.004l-0.054,0.006l-0.054,0.005l-0.054,0.007l-0.053,0.007l-0.053,0.008l-0.053,0.008l-0.053,0.009l-0.052,0.01l-0.053,0.01l-0.052,0.011l-0.051,0.012l-0.052,0.012l-0.051,0.013l-0.051,0.014l-0.051,0.014l-0.051,0.015l-0.05,0.015l-0.05,0.016l-0.05,0.016l-0.05,0.017l-0.049,0.018l-0.049,0.018l-0.048,0.019l-0.049,0.02l-0.048,0.02l-0.048,0.02l-0.047,0.021l-0.047,0.022l-0.047,0.022l-0.047,0.023l-0.046,0.023l-0.046,0.024l-0.046,0.025l-0.045,0.025l-0.045,0.025l-0.044,0.026l-0.045,0.027l-0.043,0.027l-0.044,0.027l-0.043,0.028l-0.043,0.029l-0.042,0.029l-0.043,0.03l-0.041,0.03l-0.042,0.03l-0.041,0.031l-0.04,0.032l-0.04,0.032l-0.04,0.032l-0.04,0.033l-0.039,0.034l-0.038,0.033l-0.038,0.035l-0.038,0.034l-0.037,0.036l-0.037,0.035l-0.037,0.036l-0.036,0.037l-0.035,0.037l-0.036,0.037l-0.034,0.038l-0.035,0.038l-0.033,0.038l-0.034,0.039l-0.033,0.04l-0.032,0.04l-0.032,0.04l-0.032,0.04l-0.031,0.041l-0.03,0.042l-0.03,0.041l-0.03,0.043l-0.029,0.042l-0.029,0.043l-0.028,0.043l-0.027,0.044l-0.027,0.043l-0.027,0.045l-0.026,0.044l-0.025,0.045l-0.025,0.045l-0.025,0.046l-0.024,0.046l-0.023,0.046l-0.023,0.047l-0.022,0.047l-0.022,0.047l-0.021,0.047l-0.02,0.048l-0.02,0.048l-0.02,0.049l-0.019,0.048l-0.018,0.049l-0.018,0.049l-0.017,0.05l-0.016,0.05l-0.016,0.05l-0.015,0.05l-0.015,0.051l-0.014,0.051l-0.014,0.051l-0.013,0.051l-0.012,0.052l-0.012,0.051l-0.011,0.052l-0.01,0.053l-0.01,0.052l-0.009,0.053l-0.008,0.053l-0.008,0.053l-0.007,0.053l-0.007,0.054l-0.005,0.054l-0.006,0.054l-0.004,0.054l-0.004,0.054l-0.003,0.055l-0.002,0.054l-0.002,0.055l-0.001,0.055l-0.001,0.056l0.001,0.055l0.001,0.055l0.002,0.055l0.002,0.054l0.003,0.055l0.004,0.054l0.004,0.054l0.006,0.054l0.005,0.054l0.007,0.054l0.007,0.053l0.008,0.053l0.008,0.053l0.009,0.053l0.01,0.052l0.01,0.053l0.011,0.052l0.012,0.051l0.012,0.052l0.013,0.051l0.014,0.051l0.014,0.051l0.015,0.051l0.015,0.05l0.016,0.05l0.016,0.05l0.017,0.05l0.018,0.049l0.018,0.049l0.019,0.048l0.02,0.049l0.02,0.048l0.02,0.048l0.021,0.047l0.022,0.047l0.022,0.047l0.023,0.047l0.023,0.046l0.024,0.046l0.025,0.046l0.025,0.045l0.025,0.045l0.026,0.044l0.027,0.045l0.027,0.043l0.027,0.044l0.028,0.043l0.029,0.043l0.029,0.042l0.03,0.043l0.03,0.041l0.03,0.042l0.031,0.041l0.032,0.04l0.032,0.04l0.032,0.04l0.033,0.04l0.034,0.039l0.033,0.038l0.035,0.038l0.034,0.038l0.036,0.037l0.035,0.037l0.036,0.037l0.037,0.036l0.037,0.035l0.037,0.036l0.038,0.034l0.038,0.035l0.038,0.033l0.039,0.034l0.04,0.033l0.04,0.032l0.04,0.032l0.04,0.032l0.041,0.031l0.042,0.03l0.041,0.03l0.043,0.03l0.042,0.029l0.043,0.029l0.043,0.028l0.044,0.027l0.043,0.027l0.045,0.027l0.044,0.026l0.045,0.025l0.045,0.025l0.046,0.025l0.046,0.024l0.046,0.023l0.047,0.023l0.047,0.022l0.047,0.022l0.047,0.021l0.048,0.02l0.048,0.02l0.049,0.02l0.048,0.019l0.049,0.018l0.049,0.018l0.05,0.017l0.05,0.016l0.05,0.016l0.05,0.015l0.051,0.015l0.051,0.014l0.051,0.014l0.051,0.013l0.052,0.012l0.051,0.012l0.052,0.011l0.053,0.01l0.052,0.01l0.053,0.009l0.053,0.008l0.053,0.008l0.053,0.007l0.054,0.007l0.054,0.005l0.054,0.006l0.054,0.004l0.054,0.004l0.055,0.003l0.054,0.002l0.055,0.002l0.055,0.001l0.056,0.001l0.055,-0.001l0.055,-0.001l0.055,-0.002l0.054,-0.002l0.055,-0.003l0.054,-0.004l0.054,-0.004l0.054,-0.006l0.054,-0.005l0.054,-0.007l0.053,-0.007l0.053,-0.008l0.053,-0.008l0.053,-0.009l0.052,-0.01l0.053,-0.01l0.052,-0.011l0.051,-0.012l0.052,-0.012l0.051,-0.013l0.051,-0.014l0.051,-0.014l0.051,-0.015l0.05,-0.015l0.05,-0.016l0.05,-0.016l0.05,-0.017l0.049,-0.018l0.049,-0.018l0.048,-0.019l0.049,-0.02l0.048,-0.02l0.048,-0.02l0.047,-0.021l0.047,-0.022l0.047,-0.022l0.047,-0.023l0.046,-0.023l0.046,-0.024l0.046,-0.025l0.045,-0.025l0.045,-0.025l0.044,-0.026l0.045,-0.027l0.043,-0.027l0.044,-0.027l0.043,-0.028l0.043,-0.029l0.042,-0.029l0.043,-0.03l0.041,-0.03l0.042,-0.03l0.041,-0.031l0.04,-0.032l0.04,-0.032l0.04,-0.032l0.04,-0.033l0.039,-0.034l0.038,-0.033l0.038,-0.035l0.038,-0.034l0.037,-0.036l0.037,-0.035l0.037,-0.036l0.036,-0.037l0.035,-0.037l0.036,-0.037l0.034,-0.038l0.035,-0.038l0.033,-0.038l0.034,-0.039l0.033,-0.04l0.032,-0.04l0.032,-0.04l0.032,-0.04l0.031,-0.041l0.03,-0.042l0.03,-0.041l0.03,-0.043l0.029,-0.042l0.029,-0.043l0.028,-0.043l0.027,-0.044l0.027,-0.043l0.027,-0.045l0.026,-0.044l0.025,-0.045l0.025,-0.045l0.025,-0.046l0.024,-0.046l0.023,-0.046l0.023,-0.047l0.022,-0.047l0.022,-0.047l0.021,-0.047l0.02,-0.048l0.02,-0.048l0.02,-0.049l0.019,-0.048l0.018,-0.049l0.018,-0.049l0.017,-0.05l0.016,-0.05l0.016,-0.05l0.015,-0.05l0.015,-0.051l0.014,-0.051l0.014,-0.051l0.013,-0.051l0.012,-0.052l0.012,-0.051l0.011,-0.052l0.01,-0.053l0.01,-0.052l0.009,-0.053l0.008,-0.053l0.008,-0.053l0.007,-0.053l0.007,-0.054l0.005,-0.054l0.006,-0.054l0.004,-0.054l0.004,-0.054l0.003,-0.055l0.002,-0.054l0.002,-0.055l0.001,-0.055l0.001,-0.055l-0.001,-0.056l-0.001,-0.055l-0.002,-0.055l-0.002,-0.054l-0.003,-0.055l-0.004,-0.054l-0.004,-0.054l-0.006,-0.054l-0.005,-0.054l-0.007,-0.054l-0.007,-0.053l-0.008,-0.053l-0.008,-0.053l-0.009,-0.053l-0.01,-0.052l-0.01,-0.053l-0.011,-0.052l-0.012,-0.051l-0.012,-0.052l-0.013,-0.051l-0.014,-0.051l-0.014,-0.051l-0.015,-0.051l-0.015,-0.05l-0.016,-0.05l-0.016,-0.05l-0.017,-0.05l-0.018,-0.049l-0.018,-0.049l-0.019,-0.048l-0.02,-0.049l-0.02,-0.048l-0.02,-0.048l-0.021,-0.047l-0.022,-0.047l-0.022,-0.047l-0.023,-0.047l-0.023,-0.046l-0.024,-0.046l-0.025,-0.046l-0.025,-0.045l-0.025,-0.045l-0.026,-0.044l-0.027,-0.045l-0.027,-0.043l-0.027,-0.044l-0.028,-0.043l-0.029,-0.043l-0.029,-0.042l-0.03,-0.043l-0.03,-0.041l-0.03,-0.042l-0.031,-0.041l-0.032,-0.04l-0.032,-0.04l-0.032,-0.04l-0.033,-0.04l-0.034,-0.039l-0.033,-0.038l-0.035,-0.038l-0.034,-0.038l-0.036,-0.037l-0.035,-0.037l-0.036,-0.037l-0.037,-0.036l-0.037,-0.035l-0.037,-0.036l-0.038,-0.034l-0.038,-0.035l-0.038,-0.033l-0.039,-0.034l-0.04,-0.033l-0.04,-0.032l-0.04,-0.032l-0.04,-0.032l-0.041,-0.031l-0.042,-0.03l-0.041,-0.03l-0.043,-0.03l-0.042,-0.029l-0.043,-0.029l-0.043,-0.028l-0.044,-0.027l-0.043,-0.027l-0.045,-0.027l-0.044,-0.026l-0.045,-0.025l-0.045,-0.025l-0.046,-0.025l-0.046,-0.024l-0.046,-0.023l-0.047,-0.023l-0.047,-0.022l-0.047,-0.022l-0.047,-0.021l-0.048,-0.02l-0.048,-0.02l-0.049,-0.02l-0.048,-0.019l-0.049,-0.018l-0.049,-0.018l-0.05,-0.017l-0.05,-0.016l-0.05,-0.016l-0.05,-0.015l-0.051,-0.015l-0.051,-0.014l-0.051,-0.014l-0.051,-0.013l-0.052,-0.012l-0.051,-0.012l-0.052,-0.011l-0.053,-0.01l-0.052,-0.01l-0.053,-0.009l-0.053,-0.008l-0.053,-0.008l-0.053,-0.007l-0.054,-0.007l-0.054,-0.005l-0.054,-0.006l-0.054,-0.004l-0.054,-0.004l-0.055,-0.003l-0.054,-0.002l-0.055,-0.002l-0.055,-0.001l-0.055,-0.001l-0.056,0.001Z" style="fill:#1e1e1e;"/><path d="M14.332,2.341c-0.926,-0.121 -1.863,-0.121 -2.789,0l-0.68,2.854l-2.015,-2.131c-0.863,0.357 -1.676,0.826 -2.417,1.395l0.839,2.811l-2.811,-0.839c-0.569,0.741 -1.038,1.554 -1.395,2.417l2.131,2.015l-2.854,0.68c-0.121,0.926 -0.121,1.863 0,2.789l2.854,0.68l-2.131,2.015c0.357,0.863 0.826,1.676 1.395,2.417l2.811,-0.839l-0.839,2.811c0.741,0.569 1.554,1.038 2.417,1.395l2.015,-2.131l0.68,2.854c0.926,0.121 1.863,0.121 2.789,0l0.68,-2.854l2.015,2.131c0.863,-0.357 1.676,-0.826 2.417,-1.395l-0.839,-2.811l2.811,0.839c0.569,-0.741 1.038,-1.554 1.395,-2.417l-2.131,-2.015l2.854,-0.68c0.121,-0.926 0.121,-1.863 0,-2.789l-2.854,-0.68l2.131,-2.015c-0.357,-0.863 -0.826,-1.676 -1.395,-2.417l-2.811,0.839l0.839,-2.811c-0.741,-0.569 -1.554,-1.038 -2.417,-1.395l-2.015,2.131l-0.68,-2.854Zm-1.395,6.321c2.36,0 4.276,1.916 4.276,4.275c0,2.36 -1.916,4.276 -4.276,4.276c-2.359,0 -4.275,-1.916 -4.275,-4.276c0,-2.359 1.916,-4.275 4.275,-4.275Z" style="fill:#808080;"/><path d="M13.025,2.25l0.087,0.001l0.088,0.002l0.087,0.003l0.087,0.003l0.088,0.004l0.087,0.005l0.087,0.005l0.087,0.006l0.088,0.007l0.087,0.007l0.087,0.008l0.087,0.009l0.087,0.01l0.087,0.01l0.086,0.011l0.68,2.854l2.015,-2.131l0.081,0.033l0.081,0.035l0.08,0.035l0.08,0.036l0.079,0.036l0.079,0.037l0.079,0.038l0.079,0.038l0.078,0.039l0.078,0.04l0.078,0.04l0.077,0.041l0.077,0.042l0.076,0.042l0.076,0.042l0.076,0.044l0.076,0.044l0.075,0.044l0.075,0.046l0.074,0.046l0.074,0.046l0.074,0.047l0.073,0.048l0.073,0.048l0.072,0.049l0.072,0.049l0.072,0.05l0.071,0.051l0.071,0.051l0.071,0.052l0.07,0.053l0.07,0.053l-0.839,2.811l2.811,-0.839l0.053,0.07l0.053,0.07l0.052,0.071l0.051,0.071l0.051,0.071l0.05,0.072l0.049,0.072l0.049,0.072l0.048,0.073l0.048,0.073l0.047,0.074l0.046,0.074l0.046,0.074l0.046,0.075l0.044,0.075l0.044,0.076l0.044,0.076l0.042,0.076l0.042,0.076l0.042,0.077l0.041,0.077l0.04,0.078l0.04,0.078l0.039,0.078l0.038,0.079l0.038,0.079l0.037,0.079l0.036,0.079l0.036,0.08l0.035,0.08l0.035,0.081l0.033,0.081l-2.131,2.015l2.854,0.68l0.011,0.086l0.01,0.087l0.01,0.087l0.009,0.087l0.008,0.087l0.007,0.087l0.007,0.088l0.006,0.087l0.005,0.087l0.005,0.087l0.004,0.088l0.003,0.087l0.003,0.087l0.002,0.088l0.001,0.087l0,0.087l0,0.088l-0.001,0.087l-0.002,0.088l-0.003,0.087l-0.003,0.087l-0.004,0.088l-0.005,0.087l-0.005,0.087l-0.006,0.087l-0.007,0.088l-0.007,0.087l-0.008,0.087l-0.009,0.087l-0.01,0.087l-0.01,0.087l-0.011,0.086l-2.854,0.68l2.131,2.015l-0.033,0.081l-0.035,0.081l-0.035,0.08l-0.036,0.08l-0.036,0.079l-0.037,0.079l-0.038,0.079l-0.038,0.079l-0.039,0.078l-0.04,0.078l-0.04,0.078l-0.041,0.077l-0.042,0.077l-0.042,0.076l-0.042,0.076l-0.044,0.076l-0.044,0.076l-0.044,0.075l-0.046,0.075l-0.046,0.074l-0.046,0.074l-0.047,0.074l-0.048,0.073l-0.048,0.073l-0.049,0.072l-0.049,0.072l-0.05,0.072l-0.051,0.071l-0.051,0.071l-0.052,0.071l-0.053,0.07l-0.053,0.07l-2.811,-0.839l0.839,2.811l-0.07,0.053l-0.07,0.053l-0.071,0.052l-0.071,0.051l-0.071,0.051l-0.072,0.05l-0.072,0.049l-0.072,0.049l-0.073,0.048l-0.073,0.048l-0.074,0.047l-0.074,0.046l-0.074,0.046l-0.075,0.046l-0.075,0.044l-0.076,0.044l-0.076,0.044l-0.076,0.042l-0.076,0.042l-0.077,0.042l-0.077,0.041l-0.078,0.04l-0.078,0.04l-0.078,0.039l-0.079,0.038l-0.079,0.038l-0.079,0.037l-0.079,0.036l-0.08,0.036l-0.08,0.035l-0.081,0.035l-0.081,0.033l-2.015,-2.131l-0.68,2.854l-0.086,0.011l-0.087,0.01l-0.087,0.01l-0.087,0.009l-0.087,0.008l-0.087,0.007l-0.088,0.007l-0.087,0.006l-0.087,0.005l-0.087,0.005l-0.088,0.004l-0.087,0.003l-0.087,0.003l-0.088,0.002l-0.087,0.001l-0.088,0l-0.087,0l-0.087,-0.001l-0.088,-0.002l-0.087,-0.003l-0.087,-0.003l-0.088,-0.004l-0.087,-0.005l-0.087,-0.005l-0.087,-0.006l-0.088,-0.007l-0.087,-0.007l-0.087,-0.008l-0.087,-0.009l-0.087,-0.01l-0.087,-0.01l-0.086,-0.011l-0.68,-2.854l-2.015,2.131l-0.081,-0.033l-0.081,-0.035l-0.08,-0.035l-0.08,-0.036l-0.079,-0.036l-0.079,-0.037l-0.079,-0.038l-0.079,-0.038l-0.078,-0.039l-0.078,-0.04l-0.078,-0.04l-0.077,-0.041l-0.077,-0.042l-0.076,-0.042l-0.076,-0.042l-0.076,-0.044l-0.076,-0.044l-0.075,-0.044l-0.075,-0.046l-0.074,-0.046l-0.074,-0.046l-0.074,-0.047l-0.073,-0.048l-0.073,-0.048l-0.072,-0.049l-0.072,-0.049l-0.072,-0.05l-0.071,-0.051l-0.071,-0.051l-0.071,-0.052l-0.07,-0.053l-0.07,-0.053l0.839,-2.811l-2.811,0.839l-0.053,-0.07l-0.053,-0.07l-0.052,-0.071l-0.051,-0.071l-0.051,-0.071l-0.05,-0.072l-0.049,-0.072l-0.049,-0.072l-0.048,-0.073l-0.048,-0.073l-0.047,-0.074l-0.046,-0.074l-0.046,-0.074l-0.046,-0.075l-0.044,-0.075l-0.044,-0.076l-0.044,-0.076l-0.042,-0.076l-0.042,-0.076l-0.042,-0.077l-0.041,-0.077l-0.04,-0.078l-0.04,-0.078l-0.039,-0.078l-0.038,-0.079l-0.038,-0.079l-0.037,-0.079l-0.036,-0.079l-0.036,-0.08l-0.035,-0.08l-0.035,-0.081l-0.033,-0.081l2.131,-2.015l-2.854,-0.68l-0.011,-0.086l-0.01,-0.087l-0.01,-0.087l-0.009,-0.087l-0.008,-0.087l-0.007,-0.087l-0.007,-0.088l-0.006,-0.087l-0.005,-0.087l-0.005,-0.087l-0.004,-0.088l-0.003,-0.087l-0.003,-0.087l-0.002,-0.088l-0.001,-0.087l0,-0.088l0,-0.087l0.001,-0.087l0.002,-0.088l0.003,-0.087l0.003,-0.087l0.004,-0.088l0.005,-0.087l0.005,-0.087l0.006,-0.087l0.007,-0.088l0.007,-0.087l0.008,-0.087l0.009,-0.087l0.01,-0.087l0.01,-0.087l0.011,-0.086l2.854,-0.68l-2.131,-2.015l0.033,-0.081l0.035,-0.081l0.035,-0.08l0.036,-0.08l0.036,-0.079l0.037,-0.079l0.038,-0.079l0.038,-0.079l0.039,-0.078l0.04,-0.078l0.04,-0.078l0.041,-0.077l0.042,-0.077l0.042,-0.076l0.042,-0.076l0.044,-0.076l0.044,-0.076l0.044,-0.075l0.046,-0.075l0.046,-0.074l0.046,-0.074l0.047,-0.074l0.048,-0.073l0.048,-0.073l0.049,-0.072l0.049,-0.072l0.05,-0.072l0.051,-0.071l0.051,-0.071l0.052,-0.071l0.053,-0.07l0.053,-0.07l2.811,0.839l-0.839,-2.811l0.07,-0.053l0.07,-0.053l0.071,-0.052l0.071,-0.051l0.071,-0.051l0.072,-0.05l0.072,-0.049l0.072,-0.049l0.073,-0.048l0.073,-0.048l0.074,-0.047l0.074,-0.046l0.074,-0.046l0.075,-0.046l0.075,-0.044l0.076,-0.044l0.076,-0.044l0.076,-0.042l0.076,-0.042l0.077,-0.042l0.077,-0.041l0.078,-0.04l0.078,-0.04l0.078,-0.039l0.079,-0.038l0.079,-0.038l0.079,-0.037l0.079,-0.036l0.08,-0.036l0.08,-0.035l0.081,-0.035l0.081,-0.033l2.015,2.131l0.68,-2.854l0.086,-0.011l0.087,-0.01l0.087,-0.01l0.087,-0.009l0.087,-0.008l0.087,-0.007l0.088,-0.007l0.087,-0.006l0.087,-0.005l0.087,-0.005l0.088,-0.004l0.087,-0.003l0.087,-0.003l0.088,-0.002l0.087,-0.001l0.087,0l0.088,0Zm-0.167,1l-0.079,0.001l-0.079,0.002l-0.079,0.002l-0.079,0.003l-0.08,0.004l-0.079,0.004l-0.033,0.002l-0.784,3.292l-0.63,0.168l-2.324,-2.458l-0.03,0.015l-0.071,0.035l-0.07,0.037l-0.07,0.037l-0.07,0.038l-0.069,0.038l-0.069,0.039l-0.069,0.039l-0.069,0.04l-0.068,0.04l-0.068,0.041l-0.067,0.042l-0.067,0.042l-0.067,0.043l-0.066,0.043l-0.028,0.018l0.967,3.243l-0.461,0.461l-3.243,-0.967l-0.018,0.028l-0.043,0.066l-0.043,0.067l-0.042,0.067l-0.042,0.067l-0.041,0.068l-0.04,0.068l-0.04,0.069l-0.039,0.069l-0.039,0.069l-0.038,0.069l-0.038,0.07l-0.037,0.07l-0.037,0.07l-0.035,0.071l-0.015,0.03l2.458,2.324l-0.168,0.63l-3.292,0.784l-0.002,0.033l-0.004,0.079l-0.004,0.08l-0.003,0.079l-0.002,0.079l-0.002,0.079l-0.001,0.079l0,0.079l0,0.08l0.001,0.079l0.002,0.079l0.002,0.079l0.003,0.079l0.004,0.08l0.004,0.079l0.002,0.033l3.292,0.784l0.168,0.63l-2.458,2.324l0.015,0.03l0.035,0.071l0.037,0.07l0.037,0.07l0.038,0.07l0.038,0.069l0.039,0.069l0.039,0.069l0.04,0.069l0.04,0.068l0.041,0.068l0.042,0.067l0.042,0.067l0.043,0.067l0.043,0.066l0.018,0.028l3.243,-0.967l0.461,0.461l-0.967,3.243l0.028,0.018l0.066,0.043l0.067,0.043l0.067,0.042l0.067,0.042l0.068,0.041l0.068,0.04l0.069,0.04l0.069,0.039l0.069,0.039l0.069,0.038l0.07,0.038l0.07,0.037l0.07,0.037l0.071,0.035l0.03,0.015l2.324,-2.458l0.63,0.168l0.784,3.292l0.033,0.002l0.079,0.004l0.08,0.004l0.079,0.003l0.079,0.002l0.079,0.002l0.079,0.001l0.079,0l0.08,0l0.079,-0.001l0.079,-0.002l0.079,-0.002l0.079,-0.003l0.08,-0.004l0.079,-0.004l0.033,-0.002l0.784,-3.292l0.63,-0.168l2.324,2.458l0.03,-0.015l0.071,-0.035l0.07,-0.037l0.07,-0.037l0.07,-0.038l0.069,-0.038l0.069,-0.039l0.069,-0.039l0.069,-0.04l0.068,-0.04l0.068,-0.041l0.067,-0.042l0.067,-0.042l0.067,-0.043l0.066,-0.043l0.028,-0.018l-0.967,-3.243l0.461,-0.461l3.243,0.967l0.018,-0.028l0.043,-0.066l0.043,-0.067l0.042,-0.067l0.042,-0.067l0.041,-0.068l0.04,-0.068l0.04,-0.069l0.039,-0.069l0.039,-0.069l0.038,-0.069l0.038,-0.07l0.037,-0.07l0.037,-0.07l0.035,-0.071l0.015,-0.03l-2.458,-2.324l0.168,-0.63l3.292,-0.784l0.002,-0.033l0.004,-0.079l0.004,-0.08l0.003,-0.079l0.002,-0.079l0.002,-0.079l0.001,-0.079l0,-0.08l0,-0.079l-0.001,-0.079l-0.002,-0.079l-0.002,-0.079l-0.003,-0.079l-0.004,-0.08l-0.004,-0.079l-0.002,-0.033l-3.292,-0.784l-0.168,-0.63l2.458,-2.324l-0.015,-0.03l-0.035,-0.071l-0.037,-0.07l-0.037,-0.07l-0.038,-0.07l-0.038,-0.069l-0.039,-0.069l-0.039,-0.069l-0.04,-0.069l-0.04,-0.068l-0.041,-0.068l-0.042,-0.067l-0.042,-0.067l-0.043,-0.067l-0.043,-0.066l-0.018,-0.028l-3.243,0.967l-0.461,-0.461l0.967,-3.243l-0.028,-0.018l-0.066,-0.043l-0.067,-0.043l-0.067,-0.042l-0.067,-0.042l-0.068,-0.041l-0.068,-0.04l-0.069,-0.04l-0.069,-0.039l-0.069,-0.039l-0.069,-0.038l-0.07,-0.038l-0.07,-0.037l-0.07,-0.037l-0.071,-0.035l-0.03,-0.015l-2.324,2.458l-0.63,-0.168l-0.784,-3.292l-0.033,-0.002l-0.079,-0.004l-0.08,-0.004l-0.079,-0.003l-0.079,-0.002l-0.079,-0.002l-0.079,-0.001l-0.08,0l-0.079,0Zm0.147,4.413l0.068,0.001l0.068,0.002l0.067,0.003l0.067,0.004l0.067,0.005l0.067,0.005l0.066,0.007l0.067,0.007l0.066,0.008l0.066,0.009l0.065,0.009l0.066,0.011l0.065,0.011l0.065,0.012l0.064,0.013l0.065,0.013l0.064,0.015l0.063,0.015l0.064,0.016l0.063,0.016l0.063,0.018l0.062,0.018l0.062,0.019l0.062,0.02l0.062,0.02l0.061,0.021l0.061,0.022l0.06,0.023l0.06,0.023l0.06,0.024l0.06,0.025l0.059,0.025l0.058,0.026l0.059,0.027l0.058,0.028l0.057,0.028l0.057,0.029l0.057,0.029l0.056,0.03l0.056,0.031l0.055,0.031l0.055,0.033l0.055,0.032l0.054,0.034l0.054,0.034l0.053,0.034l0.053,0.035l0.052,0.036l0.052,0.037l0.052,0.037l0.051,0.037l0.05,0.039l0.05,0.039l0.05,0.039l0.049,0.04l0.048,0.041l0.048,0.041l0.048,0.041l0.047,0.043l0.046,0.042l0.046,0.044l0.046,0.044l0.045,0.044l0.044,0.045l0.044,0.046l0.044,0.046l0.042,0.046l0.043,0.047l0.041,0.048l0.041,0.048l0.041,0.048l0.04,0.049l0.039,0.05l0.039,0.05l0.039,0.05l0.037,0.051l0.037,0.052l0.037,0.052l0.036,0.052l0.035,0.053l0.034,0.053l0.034,0.054l0.034,0.054l0.032,0.055l0.033,0.055l0.031,0.055l0.031,0.056l0.03,0.056l0.029,0.057l0.029,0.057l0.028,0.057l0.028,0.058l0.027,0.059l0.026,0.058l0.025,0.059l0.025,0.06l0.024,0.06l0.023,0.06l0.023,0.06l0.022,0.061l0.021,0.061l0.02,0.062l0.02,0.062l0.019,0.062l0.018,0.062l0.018,0.063l0.016,0.063l0.016,0.064l0.015,0.063l0.015,0.064l0.013,0.065l0.013,0.064l0.012,0.065l0.011,0.065l0.011,0.066l0.009,0.065l0.009,0.066l0.008,0.066l0.007,0.067l0.007,0.066l0.005,0.067l0.005,0.067l0.004,0.067l0.003,0.067l0.002,0.068l0.001,0.068l0.001,0.067l-0.001,0.068l-0.001,0.068l-0.002,0.068l-0.003,0.067l-0.004,0.067l-0.005,0.067l-0.005,0.067l-0.007,0.066l-0.007,0.067l-0.008,0.066l-0.009,0.066l-0.009,0.065l-0.011,0.066l-0.011,0.065l-0.012,0.065l-0.013,0.064l-0.013,0.065l-0.015,0.064l-0.015,0.063l-0.016,0.064l-0.016,0.063l-0.018,0.063l-0.018,0.062l-0.019,0.062l-0.02,0.062l-0.02,0.062l-0.021,0.061l-0.022,0.061l-0.023,0.06l-0.023,0.06l-0.024,0.06l-0.025,0.06l-0.025,0.059l-0.026,0.058l-0.027,0.059l-0.028,0.058l-0.028,0.057l-0.029,0.057l-0.029,0.057l-0.03,0.056l-0.031,0.056l-0.031,0.055l-0.033,0.055l-0.032,0.055l-0.034,0.054l-0.034,0.054l-0.034,0.053l-0.035,0.053l-0.036,0.052l-0.037,0.052l-0.037,0.052l-0.037,0.051l-0.039,0.05l-0.039,0.05l-0.039,0.05l-0.04,0.049l-0.041,0.048l-0.041,0.048l-0.041,0.048l-0.043,0.047l-0.042,0.046l-0.044,0.046l-0.044,0.046l-0.044,0.045l-0.045,0.044l-0.046,0.044l-0.046,0.044l-0.046,0.042l-0.047,0.043l-0.048,0.041l-0.048,0.041l-0.048,0.041l-0.049,0.04l-0.05,0.039l-0.05,0.039l-0.05,0.039l-0.051,0.037l-0.052,0.037l-0.052,0.037l-0.052,0.036l-0.053,0.035l-0.053,0.034l-0.054,0.034l-0.054,0.034l-0.055,0.032l-0.055,0.033l-0.055,0.031l-0.056,0.031l-0.056,0.03l-0.057,0.029l-0.057,0.029l-0.057,0.028l-0.058,0.028l-0.059,0.027l-0.058,0.026l-0.059,0.025l-0.06,0.025l-0.06,0.024l-0.06,0.023l-0.06,0.023l-0.061,0.022l-0.061,0.021l-0.062,0.02l-0.062,0.02l-0.062,0.019l-0.062,0.018l-0.063,0.018l-0.063,0.016l-0.064,0.016l-0.063,0.015l-0.064,0.015l-0.065,0.013l-0.064,0.013l-0.065,0.012l-0.065,0.011l-0.066,0.011l-0.065,0.009l-0.066,0.009l-0.066,0.008l-0.067,0.007l-0.066,0.007l-0.067,0.005l-0.067,0.005l-0.067,0.004l-0.067,0.003l-0.068,0.002l-0.068,0.001l-0.068,0.001l-0.067,-0.001l-0.068,-0.001l-0.068,-0.002l-0.067,-0.003l-0.067,-0.004l-0.067,-0.005l-0.067,-0.005l-0.066,-0.007l-0.067,-0.007l-0.066,-0.008l-0.066,-0.009l-0.065,-0.009l-0.066,-0.011l-0.065,-0.011l-0.065,-0.012l-0.064,-0.013l-0.065,-0.013l-0.064,-0.015l-0.063,-0.015l-0.064,-0.016l-0.063,-0.016l-0.063,-0.018l-0.062,-0.018l-0.062,-0.019l-0.062,-0.02l-0.062,-0.02l-0.061,-0.021l-0.061,-0.022l-0.06,-0.023l-0.06,-0.023l-0.06,-0.024l-0.06,-0.025l-0.059,-0.025l-0.058,-0.026l-0.059,-0.027l-0.058,-0.028l-0.057,-0.028l-0.057,-0.029l-0.057,-0.029l-0.056,-0.03l-0.056,-0.031l-0.055,-0.031l-0.055,-0.033l-0.055,-0.032l-0.054,-0.034l-0.054,-0.034l-0.053,-0.034l-0.053,-0.035l-0.052,-0.036l-0.052,-0.037l-0.052,-0.037l-0.051,-0.037l-0.05,-0.039l-0.05,-0.039l-0.05,-0.039l-0.049,-0.04l-0.048,-0.041l-0.048,-0.041l-0.048,-0.041l-0.047,-0.043l-0.046,-0.042l-0.046,-0.044l-0.046,-0.044l-0.045,-0.044l-0.044,-0.045l-0.044,-0.046l-0.044,-0.046l-0.042,-0.046l-0.043,-0.047l-0.041,-0.048l-0.041,-0.048l-0.041,-0.048l-0.04,-0.049l-0.039,-0.05l-0.039,-0.05l-0.039,-0.05l-0.037,-0.051l-0.037,-0.052l-0.037,-0.052l-0.036,-0.052l-0.035,-0.053l-0.034,-0.053l-0.034,-0.054l-0.034,-0.054l-0.032,-0.055l-0.033,-0.055l-0.031,-0.055l-0.031,-0.056l-0.03,-0.056l-0.029,-0.057l-0.029,-0.057l-0.028,-0.057l-0.028,-0.058l-0.027,-0.059l-0.026,-0.058l-0.025,-0.059l-0.025,-0.06l-0.024,-0.06l-0.023,-0.06l-0.023,-0.06l-0.022,-0.061l-0.021,-0.061l-0.02,-0.062l-0.02,-0.062l-0.019,-0.062l-0.018,-0.062l-0.018,-0.063l-0.016,-0.063l-0.016,-0.064l-0.015,-0.063l-0.015,-0.064l-0.013,-0.065l-0.013,-0.064l-0.012,-0.065l-0.011,-0.065l-0.011,-0.066l-0.009,-0.065l-0.009,-0.066l-0.008,-0.066l-0.007,-0.067l-0.007,-0.066l-0.005,-0.067l-0.005,-0.067l-0.004,-0.067l-0.003,-0.067l-0.002,-0.068l-0.001,-0.068l-0.001,-0.068l0.001,-0.067l0.001,-0.068l0.002,-0.068l0.003,-0.067l0.004,-0.067l0.005,-0.067l0.005,-0.067l0.007,-0.066l0.007,-0.067l0.008,-0.066l0.009,-0.066l0.009,-0.065l0.011,-0.066l0.011,-0.065l0.012,-0.065l0.013,-0.064l0.013,-0.065l0.015,-0.064l0.015,-0.063l0.016,-0.064l0.016,-0.063l0.018,-0.063l0.018,-0.062l0.019,-0.062l0.02,-0.062l0.02,-0.062l0.021,-0.061l0.022,-0.061l0.023,-0.06l0.023,-0.06l0.024,-0.06l0.025,-0.06l0.025,-0.059l0.026,-0.058l0.027,-0.059l0.028,-0.058l0.028,-0.057l0.029,-0.057l0.029,-0.057l0.03,-0.056l0.031,-0.056l0.031,-0.055l0.033,-0.055l0.032,-0.055l0.034,-0.054l0.034,-0.054l0.034,-0.053l0.035,-0.053l0.036,-0.052l0.037,-0.052l0.037,-0.052l0.037,-0.051l0.039,-0.05l0.039,-0.05l0.039,-0.05l0.04,-0.049l0.041,-0.048l0.041,-0.048l0.041,-0.048l0.043,-0.047l0.042,-0.046l0.044,-0.046l0.044,-0.046l0.044,-0.045l0.045,-0.044l0.046,-0.044l0.046,-0.044l0.046,-0.042l0.047,-0.043l0.048,-0.041l0.048,-0.041l0.048,-0.041l0.049,-0.04l0.05,-0.039l0.05,-0.039l0.05,-0.039l0.051,-0.037l0.052,-0.037l0.052,-0.037l0.052,-0.036l0.053,-0.035l0.053,-0.034l0.054,-0.034l0.054,-0.034l0.055,-0.032l0.055,-0.033l0.055,-0.031l0.056,-0.031l0.056,-0.03l0.057,-0.029l0.057,-0.029l0.057,-0.028l0.058,-0.028l0.059,-0.027l0.058,-0.026l0.059,-0.025l0.06,-0.025l0.06,-0.024l0.06,-0.023l0.06,-0.023l0.061,-0.022l0.061,-0.021l0.062,-0.02l0.062,-0.02l0.062,-0.019l0.062,-0.018l0.063,-0.018l0.063,-0.016l0.064,-0.016l0.063,-0.015l0.064,-0.015l0.065,-0.013l0.064,-0.013l0.065,-0.012l0.065,-0.011l0.066,-0.011l0.065,-0.009l0.066,-0.009l0.066,-0.008l0.067,-0.007l0.066,-0.007l0.067,-0.005l0.067,-0.005l0.067,-0.004l0.067,-0.003l0.068,-0.002l0.068,-0.001l0.067,-0.001l0.068,0.001Zm-0.123,1l-0.055,0.001l-0.055,0.002l-0.054,0.002l-0.055,0.003l-0.054,0.004l-0.054,0.004l-0.054,0.006l-0.054,0.005l-0.054,0.007l-0.053,0.007l-0.053,0.008l-0.053,0.008l-0.053,0.009l-0.052,0.01l-0.053,0.01l-0.052,0.011l-0.051,0.012l-0.052,0.012l-0.051,0.013l-0.051,0.014l-0.051,0.014l-0.051,0.015l-0.05,0.015l-0.05,0.016l-0.05,0.016l-0.05,0.017l-0.049,0.018l-0.049,0.018l-0.048,0.019l-0.049,0.02l-0.048,0.02l-0.048,0.02l-0.047,0.021l-0.047,0.022l-0.047,0.022l-0.047,0.023l-0.046,0.023l-0.046,0.024l-0.046,0.025l-0.045,0.025l-0.045,0.025l-0.044,0.026l-0.045,0.027l-0.043,0.027l-0.044,0.027l-0.043,0.028l-0.043,0.029l-0.042,0.029l-0.043,0.03l-0.041,0.03l-0.042,0.03l-0.041,0.031l-0.04,0.032l-0.04,0.032l-0.04,0.032l-0.04,0.033l-0.039,0.034l-0.038,0.033l-0.038,0.035l-0.038,0.034l-0.037,0.036l-0.037,0.035l-0.037,0.036l-0.036,0.037l-0.035,0.037l-0.036,0.037l-0.034,0.038l-0.035,0.038l-0.033,0.038l-0.034,0.039l-0.033,0.04l-0.032,0.04l-0.032,0.04l-0.032,0.04l-0.031,0.041l-0.03,0.042l-0.03,0.041l-0.03,0.043l-0.029,0.042l-0.029,0.043l-0.028,0.043l-0.027,0.044l-0.027,0.043l-0.027,0.045l-0.026,0.044l-0.025,0.045l-0.025,0.045l-0.025,0.046l-0.024,0.046l-0.023,0.046l-0.023,0.047l-0.022,0.047l-0.022,0.047l-0.021,0.047l-0.02,0.048l-0.02,0.048l-0.02,0.049l-0.019,0.048l-0.018,0.049l-0.018,0.049l-0.017,0.05l-0.016,0.05l-0.016,0.05l-0.015,0.05l-0.015,0.051l-0.014,0.051l-0.014,0.051l-0.013,0.051l-0.012,0.052l-0.012,0.051l-0.011,0.052l-0.01,0.053l-0.01,0.052l-0.009,0.053l-0.008,0.053l-0.008,0.053l-0.007,0.053l-0.007,0.054l-0.005,0.054l-0.006,0.054l-0.004,0.054l-0.004,0.054l-0.003,0.055l-0.002,0.054l-0.002,0.055l-0.001,0.055l-0.001,0.055l0.001,0.056l0.001,0.055l0.002,0.055l0.002,0.054l0.003,0.055l0.004,0.054l0.004,0.054l0.006,0.054l0.005,0.054l0.007,0.054l0.007,0.053l0.008,0.053l0.008,0.053l0.009,0.053l0.01,0.052l0.01,0.053l0.011,0.052l0.012,0.051l0.012,0.052l0.013,0.051l0.014,0.051l0.014,0.051l0.015,0.051l0.015,0.05l0.016,0.05l0.016,0.05l0.017,0.05l0.018,0.049l0.018,0.049l0.019,0.048l0.02,0.049l0.02,0.048l0.02,0.048l0.021,0.047l0.022,0.047l0.022,0.047l0.023,0.047l0.023,0.046l0.024,0.046l0.025,0.046l0.025,0.045l0.025,0.045l0.026,0.044l0.027,0.045l0.027,0.043l0.027,0.044l0.028,0.043l0.029,0.043l0.029,0.042l0.03,0.043l0.03,0.041l0.03,0.042l0.031,0.041l0.032,0.04l0.032,0.04l0.032,0.04l0.033,0.04l0.034,0.039l0.033,0.038l0.035,0.038l0.034,0.038l0.036,0.037l0.035,0.037l0.036,0.037l0.037,0.036l0.037,0.035l0.037,0.036l0.038,0.034l0.038,0.035l0.038,0.033l0.039,0.034l0.04,0.033l0.04,0.032l0.04,0.032l0.04,0.032l0.041,0.031l0.042,0.03l0.041,0.03l0.043,0.03l0.042,0.029l0.043,0.029l0.043,0.028l0.044,0.027l0.043,0.027l0.045,0.027l0.044,0.026l0.045,0.025l0.045,0.025l0.046,0.025l0.046,0.024l0.046,0.023l0.047,0.023l0.047,0.022l0.047,0.022l0.047,0.021l0.048,0.02l0.048,0.02l0.049,0.02l0.048,0.019l0.049,0.018l0.049,0.018l0.05,0.017l0.05,0.016l0.05,0.016l0.05,0.015l0.051,0.015l0.051,0.014l0.051,0.014l0.051,0.013l0.052,0.012l0.051,0.012l0.052,0.011l0.053,0.01l0.052,0.01l0.053,0.009l0.053,0.008l0.053,0.008l0.053,0.007l0.054,0.007l0.054,0.005l0.054,0.006l0.054,0.004l0.054,0.004l0.055,0.003l0.054,0.002l0.055,0.002l0.055,0.001l0.055,0.001l0.056,-0.001l0.055,-0.001l0.055,-0.002l0.054,-0.002l0.055,-0.003l0.054,-0.004l0.054,-0.004l0.054,-0.006l0.054,-0.005l0.054,-0.007l0.053,-0.007l0.053,-0.008l0.053,-0.008l0.053,-0.009l0.052,-0.01l0.053,-0.01l0.052,-0.011l0.051,-0.012l0.052,-0.012l0.051,-0.013l0.051,-0.014l0.051,-0.014l0.051,-0.015l0.05,-0.015l0.05,-0.016l0.05,-0.016l0.05,-0.017l0.049,-0.018l0.049,-0.018l0.048,-0.019l0.049,-0.02l0.048,-0.02l0.048,-0.02l0.047,-0.021l0.047,-0.022l0.047,-0.022l0.047,-0.023l0.046,-0.023l0.046,-0.024l0.046,-0.025l0.045,-0.025l0.045,-0.025l0.044,-0.026l0.045,-0.027l0.043,-0.027l0.044,-0.027l0.043,-0.028l0.043,-0.029l0.042,-0.029l0.043,-0.03l0.041,-0.03l0.042,-0.03l0.041,-0.031l0.04,-0.032l0.04,-0.032l0.04,-0.032l0.04,-0.033l0.039,-0.034l0.038,-0.033l0.038,-0.035l0.038,-0.034l0.037,-0.036l0.037,-0.035l0.037,-0.036l0.036,-0.037l0.035,-0.037l0.036,-0.037l0.034,-0.038l0.035,-0.038l0.033,-0.038l0.034,-0.039l0.033,-0.04l0.032,-0.04l0.032,-0.04l0.032,-0.04l0.031,-0.041l0.03,-0.042l0.03,-0.041l0.03,-0.043l0.029,-0.042l0.029,-0.043l0.028,-0.043l0.027,-0.044l0.027,-0.043l0.027,-0.045l0.026,-0.044l0.025,-0.045l0.025,-0.045l0.025,-0.046l0.024,-0.046l0.023,-0.046l0.023,-0.047l0.022,-0.047l0.022,-0.047l0.021,-0.047l0.02,-0.048l0.02,-0.048l0.02,-0.049l0.019,-0.048l0.018,-0.049l0.018,-0.049l0.017,-0.05l0.016,-0.05l0.016,-0.05l0.015,-0.05l0.015,-0.051l0.014,-0.051l0.014,-0.051l0.013,-0.051l0.012,-0.052l0.012,-0.051l0.011,-0.052l0.01,-0.053l0.01,-0.052l0.009,-0.053l0.008,-0.053l0.008,-0.053l0.007,-0.053l0.007,-0.054l0.005,-0.054l0.006,-0.054l0.004,-0.054l0.004,-0.054l0.003,-0.055l0.002,-0.054l0.002,-0.055l0.001,-0.055l0.001,-0.056l-0.001,-0.055l-0.001,-0.055l-0.002,-0.055l-0.002,-0.054l-0.003,-0.055l-0.004,-0.054l-0.004,-0.054l-0.006,-0.054l-0.005,-0.054l-0.007,-0.054l-0.007,-0.053l-0.008,-0.053l-0.008,-0.053l-0.009,-0.053l-0.01,-0.052l-0.01,-0.053l-0.011,-0.052l-0.012,-0.051l-0.012,-0.052l-0.013,-0.051l-0.014,-0.051l-0.014,-0.051l-0.015,-0.051l-0.015,-0.05l-0.016,-0.05l-0.016,-0.05l-0.017,-0.05l-0.018,-0.049l-0.018,-0.049l-0.019,-0.048l-0.02,-0.049l-0.02,-0.048l-0.02,-0.048l-0.021,-0.047l-0.022,-0.047l-0.022,-0.047l-0.023,-0.047l-0.023,-0.046l-0.024,-0.046l-0.025,-0.046l-0.025,-0.045l-0.025,-0.045l-0.026,-0.044l-0.027,-0.045l-0.027,-0.043l-0.027,-0.044l-0.028,-0.043l-0.029,-0.043l-0.029,-0.042l-0.03,-0.043l-0.03,-0.041l-0.03,-0.042l-0.031,-0.041l-0.032,-0.04l-0.032,-0.04l-0.032,-0.04l-0.033,-0.04l-0.034,-0.039l-0.033,-0.038l-0.035,-0.038l-0.034,-0.038l-0.036,-0.037l-0.035,-0.037l-0.036,-0.037l-0.037,-0.036l-0.037,-0.035l-0.037,-0.036l-0.038,-0.034l-0.038,-0.035l-0.038,-0.033l-0.039,-0.034l-0.04,-0.033l-0.04,-0.032l-0.04,-0.032l-0.04,-0.032l-0.041,-0.031l-0.042,-0.03l-0.041,-0.03l-0.043,-0.03l-0.042,-0.029l-0.043,-0.029l-0.043,-0.028l-0.044,-0.027l-0.043,-0.027l-0.045,-0.027l-0.044,-0.026l-0.045,-0.025l-0.045,-0.025l-0.046,-0.025l-0.046,-0.024l-0.046,-0.023l-0.047,-0.023l-0.047,-0.022l-0.047,-0.022l-0.047,-0.021l-0.048,-0.02l-0.048,-0.02l-0.049,-0.02l-0.048,-0.019l-0.049,-0.018l-0.049,-0.018l-0.05,-0.017l-0.05,-0.016l-0.05,-0.016l-0.05,-0.015l-0.051,-0.015l-0.051,-0.014l-0.051,-0.014l-0.051,-0.013l-0.052,-0.012l-0.051,-0.012l-0.052,-0.011l-0.053,-0.01l-0.052,-0.01l-0.053,-0.009l-0.053,-0.008l-0.053,-0.008l-0.053,-0.007l-0.054,-0.007l-0.054,-0.005l-0.054,-0.006l-0.054,-0.004l-0.054,-0.004l-0.055,-0.003l-0.054,-0.002l-0.055,-0.002l-0.055,-0.001l-0.056,-0.001l-0.055,0.001Z" style="fill:#1e1e1e;"/><path d="M0,12.375l36,0l0,11.25l-36,0l0,-11.25" style="fill:#1e1e1e;"/><path d="M3.791,19.387c0.283,-0.358 0.425,-0.893 0.425,-1.606c0,-0.434 -0.063,-0.807 -0.188,-1.119c-0.238,-0.601 -0.672,-0.901 -1.303,-0.901c-0.635,0 -1.069,0.317 -1.303,0.951c-0.125,0.34 -0.188,0.771 -0.188,1.293c0,0.421 0.063,0.779 0.188,1.074c0.238,0.563 0.672,0.845 1.303,0.845c0.427,0 0.783,-0.179 1.066,-0.537Zm-3.438,-4.273l0.891,0l0,0.723c0.183,-0.248 0.383,-0.439 0.601,-0.575c0.308,-0.204 0.671,-0.305 1.089,-0.305c0.617,0 1.141,0.236 1.572,0.71c0.431,0.473 0.646,1.149 0.646,2.028c0,1.187 -0.31,2.035 -0.931,2.544c-0.393,0.323 -0.851,0.484 -1.374,0.484c-0.41,0 -0.755,-0.09 -1.033,-0.27c-0.163,-0.102 -0.344,-0.277 -0.545,-0.524l0,2.784l-0.916,0l0,-7.599Z" style="fill:#fff;fill-rule:nonzero;"/><path d="M6.247,15.089l0.87,0l0,0.942c0.071,-0.184 0.246,-0.407 0.524,-0.67c0.278,-0.263 0.599,-0.394 0.962,-0.394c0.017,0 0.046,0.002 0.086,0.005c0.041,0.003 0.111,0.01 0.209,0.02l0,0.967c-0.054,-0.01 -0.104,-0.017 -0.15,-0.02c-0.046,-0.003 -0.096,-0.005 -0.15,-0.005c-0.462,0 -0.816,0.148 -1.064,0.445c-0.247,0.297 -0.371,0.639 -0.371,1.026l0,3.134l-0.916,0l0,-5.45Z" style="fill:#fff;fill-rule:nonzero;"/><path d="M13.104,19.26c0.226,-0.46 0.339,-0.972 0.339,-1.535c0,-0.509 -0.082,-0.923 -0.245,-1.242c-0.257,-0.502 -0.702,-0.753 -1.333,-0.753c-0.56,0 -0.967,0.214 -1.221,0.641c-0.255,0.428 -0.382,0.944 -0.382,1.548c0,0.58 0.127,1.063 0.382,1.45c0.254,0.387 0.658,0.58 1.211,0.58c0.607,0 1.024,-0.23 1.249,-0.689Zm0.568,-3.626c0.485,0.468 0.727,1.156 0.727,2.066c0,0.878 -0.213,1.605 -0.641,2.178c-0.427,0.573 -1.091,0.86 -1.99,0.86c-0.749,0 -1.345,-0.254 -1.786,-0.761c-0.441,-0.507 -0.662,-1.188 -0.662,-2.043c0,-0.916 0.233,-1.646 0.698,-2.188c0.464,-0.543 1.089,-0.815 1.872,-0.815c0.703,0 1.297,0.234 1.782,0.703Z" style="fill:#fff;fill-rule:nonzero;"/><path d="M16.405,14.122l-0.916,0l0,-1.058l0.916,0l0,1.058Zm-1.782,7.797c0.411,-0.014 0.658,-0.05 0.741,-0.11c0.083,-0.059 0.125,-0.245 0.125,-0.557l0,-6.138l0.916,0l0,6.235c0,0.397 -0.065,0.693 -0.194,0.89c-0.214,0.333 -0.619,0.499 -1.216,0.499c-0.044,0 -0.091,-0.002 -0.14,-0.005c-0.049,-0.003 -0.126,-0.01 -0.232,-0.02l0,-0.794Z" style="fill:#fff;fill-rule:nonzero;"/><path d="M21.199,15.239c0.363,0.182 0.639,0.417 0.829,0.705c0.183,0.275 0.305,0.595 0.366,0.962c0.055,0.251 0.082,0.651 0.082,1.201l-3.995,0c0.017,0.553 0.148,0.996 0.392,1.331c0.244,0.334 0.622,0.501 1.135,0.501c0.478,0 0.86,-0.158 1.145,-0.473c0.163,-0.184 0.278,-0.396 0.346,-0.636l0.901,0c-0.024,0.2 -0.103,0.423 -0.237,0.669c-0.134,0.246 -0.284,0.447 -0.45,0.603c-0.279,0.271 -0.623,0.454 -1.034,0.549c-0.22,0.055 -0.469,0.082 -0.748,0.082c-0.678,0 -1.253,-0.247 -1.725,-0.741c-0.471,-0.493 -0.707,-1.185 -0.707,-2.073c0,-0.876 0.237,-1.587 0.712,-2.133c0.475,-0.546 1.096,-0.819 1.863,-0.819c0.387,0 0.761,0.091 1.125,0.272Zm0.335,2.14c-0.037,-0.397 -0.123,-0.714 -0.259,-0.952c-0.251,-0.441 -0.67,-0.661 -1.257,-0.661c-0.421,0 -0.774,0.152 -1.059,0.455c-0.285,0.304 -0.436,0.69 -0.453,1.158l3.028,0Z" style="fill:#fff;fill-rule:nonzero;"/><path d="M27.201,15.379c0.385,0.299 0.617,0.813 0.695,1.542l-0.891,0c-0.054,-0.336 -0.178,-0.615 -0.371,-0.837c-0.194,-0.222 -0.504,-0.333 -0.932,-0.333c-0.583,0 -1,0.285 -1.252,0.855c-0.162,0.369 -0.244,0.826 -0.244,1.369c0,0.546 0.116,1.006 0.346,1.379c0.231,0.373 0.594,0.56 1.089,0.56c0.38,0 0.681,-0.117 0.904,-0.349c0.222,-0.232 0.375,-0.551 0.46,-0.954l0.891,0c-0.102,0.722 -0.356,1.251 -0.764,1.585c-0.407,0.334 -0.927,0.501 -1.562,0.501c-0.712,0 -1.281,-0.26 -1.705,-0.781c-0.424,-0.521 -0.636,-1.171 -0.636,-1.952c0,-0.956 0.232,-1.701 0.697,-2.234c0.465,-0.532 1.057,-0.799 1.776,-0.799c0.615,0 1.114,0.15 1.499,0.448Z" style="fill:#fff;fill-rule:nonzero;"/><path d="M28.995,13.567l0.926,0l0,1.522l0.871,0l0,0.748l-0.871,0l0,3.557c0,0.19 0.065,0.318 0.194,0.382c0.071,0.037 0.19,0.056 0.356,0.056c0.044,0 0.092,-0.001 0.142,-0.002c0.051,-0.002 0.111,-0.006 0.179,-0.013l0,0.722c-0.106,0.031 -0.215,0.053 -0.329,0.067c-0.113,0.013 -0.236,0.02 -0.369,0.02c-0.427,0 -0.717,-0.109 -0.87,-0.328c-0.153,-0.219 -0.229,-0.503 -0.229,-0.853l0,-3.608l-0.738,0l0,-0.748l0.738,0l0,-1.522Z" style="fill:#fff;fill-rule:nonzero;"/><path d="M32.252,18.83c0.027,0.305 0.104,0.539 0.229,0.702c0.231,0.295 0.631,0.443 1.201,0.443c0.339,0 0.638,-0.074 0.896,-0.222c0.258,-0.147 0.387,-0.376 0.387,-0.684c0,-0.234 -0.104,-0.413 -0.311,-0.535c-0.132,-0.074 -0.393,-0.161 -0.784,-0.259l-0.727,-0.183c-0.465,-0.116 -0.808,-0.245 -1.028,-0.387c-0.394,-0.248 -0.591,-0.591 -0.591,-1.028c0,-0.516 0.186,-0.933 0.558,-1.252c0.371,-0.319 0.871,-0.478 1.498,-0.478c0.821,0 1.413,0.24 1.777,0.722c0.227,0.306 0.337,0.635 0.33,0.987l-0.865,0c-0.017,-0.206 -0.09,-0.395 -0.219,-0.564c-0.21,-0.241 -0.575,-0.362 -1.094,-0.362c-0.346,0 -0.608,0.066 -0.786,0.199c-0.178,0.132 -0.267,0.307 -0.267,0.524c0,0.237 0.117,0.427 0.351,0.57c0.136,0.085 0.336,0.159 0.6,0.224l0.606,0.147c0.658,0.16 1.099,0.314 1.323,0.464c0.356,0.234 0.535,0.602 0.535,1.104c0,0.485 -0.185,0.904 -0.553,1.257c-0.368,0.353 -0.928,0.529 -1.682,0.529c-0.81,0 -1.385,-0.184 -1.722,-0.552c-0.338,-0.368 -0.519,-0.824 -0.542,-1.366l0.88,0Z" style="fill:#fff;fill-rule:nonzero;"/><rect x="2.25" y="24.75" width="9" height="9" style="fill:#808080;"/><path d="M11.25,33.75l-9,0l0,-9l9,0l0,9Zm-8,-8l0,7l7,0l0,-7l-7,0Z" style="fill:#1e1e1e;"/></svg>